<?xml version="1.0" standalone="no"?>
<!DOCTYPE svg PUBLIC "-//W3C//DTD SVG 20010904//EN"
 "http://www.w3.org/TR/2001/REC-SVG-20010904/DTD/svg10.dtd">
<svg version="1.0" xmlns="http://www.w3.org/2000/svg"
 width="700.000000pt" height="700.000000pt" viewBox="0 0 700.000000 700.000000"
 preserveAspectRatio="xMidYMid meet">
<metadata>
Created by potrace 1.11, written by Peter Selinger 2001-2013
</metadata>
<g transform="translate(0.000000,700.000000) scale(0.100000,-0.100000)"
fill="#000000" stroke="none">
<path d="M3238 6995 c-2 -2 -37 -5 -78 -8 -561 -41 -1154 -251 -1640 -581
-121 -82 -103 -69 -250 -187 -102 -82 -332 -303 -415 -399 -384 -441 -654
-979 -775 -1540 -35 -162 -36 -172 -45 -246 -4 -33 -9 -68 -11 -78 -25 -137
-25 -638 0 -816 2 -14 7 -48 10 -75 5 -41 13 -87 21 -125 1 -3 5 -25 9 -50 16
-90 76 -321 112 -427 234 -696 679 -1298 1274 -1723 106 -76 236 -160 247
-160 4 0 14 -6 22 -14 25 -22 217 -119 358 -182 190 -84 515 -187 688 -219
192 -34 296 -48 455 -60 90 -7 385 -7 455 0 28 2 77 7 110 10 68 6 127 12 170
20 17 2 48 7 70 11 290 42 668 166 968 316 926 464 1608 1336 1826 2333 33
154 41 199 56 325 3 25 7 63 10 85 22 182 21 515 -1 705 -5 43 -7 57 -19 148
-26 189 -69 363 -146 597 -135 404 -388 847 -659 1150 -271 303 -524 515 -838
704 -93 56 -372 201 -386 201 -4 0 -28 9 -54 21 -26 12 -56 24 -67 29 -11 4
-31 12 -45 18 -67 30 -370 121 -450 136 -14 2 -72 14 -130 25 -105 20 -145 26
-230 36 -25 3 -63 8 -85 11 -45 6 -531 14 -537 9z m477 -589 c28 -3 68 -8 90
-11 22 -3 56 -8 75 -10 19 -3 46 -7 60 -10 14 -3 41 -8 60 -11 133 -23 353
-88 523 -155 201 -80 387 -183 607 -336 238 -166 508 -444 692 -713 266 -388
441 -869 485 -1330 10 -111 10 -452 0 -560 -49 -503 -251 -1029 -545 -1417
-31 -42 -68 -91 -82 -109 -64 -86 -282 -307 -403 -409 -80 -67 -241 -179 -365
-254 -124 -75 -385 -201 -414 -201 -8 0 -18 -4 -24 -9 -15 -15 -260 -91 -377
-117 -132 -30 -271 -52 -387 -62 -109 -9 -445 -9 -530 0 -149 17 -153 17 -428
74 -54 11 -263 78 -327 105 -38 16 -73 29 -78 29 -9 0 -254 121 -322 159 -82
46 -269 175 -367 253 -130 103 -346 318 -428 424 -8 11 -31 40 -50 64 -259
327 -471 795 -544 1204 -3 16 -10 52 -15 80 -44 228 -47 643 -6 891 7 43 15
86 20 115 3 14 8 39 11 55 40 226 182 598 316 825 82 141 103 172 183 280 146
196 343 404 495 520 25 19 47 38 50 41 13 15 193 140 263 183 169 102 379 201
558 264 212 75 501 135 709 149 47 3 86 6 88 8 5 4 358 -3 407 -9z"/>
<path d="M3362 4828 c-82 -9 -133 -17 -141 -23 -4 -2 -18 -6 -32 -8 -60 -11
-194 -72 -275 -126 -205 -135 -373 -373 -418 -592 -3 -13 -8 -35 -13 -49 -4
-14 -9 -360 -11 -770 -4 -844 -6 -810 74 -899 136 -152 378 -119 473 64 27 54
29 68 30 228 l1 137 400 0 400 0 1 -127 c0 -71 3 -141 5 -158 8 -54 54 -134
97 -169 156 -127 370 -78 455 104 l26 55 0 725 c-1 633 -3 736 -17 811 -82
422 -431 749 -847 795 -88 9 -141 10 -208 2z m184 -590 c3 -4 15 -8 26 -8 50
0 155 -80 210 -158 61 -88 67 -123 68 -425 l1 -273 -401 0 -400 0 0 247 c0
135 5 271 10 300 29 153 156 289 294 316 11 2 22 5 24 7 7 8 163 2 168 -6z"/>
</g>
</svg>
