<svg width="253" height="68" viewBox="0 0 253 68" fill="none" xmlns="http://www.w3.org/2000/svg">
<path fill-rule="evenodd" clip-rule="evenodd" d="M29.6407 35.2265V30.5825C29.6407 28.4385 31.3847 26.6935 33.5287 26.6935C35.6737 26.6935 37.4177 28.4385 37.4177 30.5825V35.2265H29.6407ZM33.5287 21.0345C28.5397 21.0345 24.4377 24.8845 24.0227 29.7685C24.0037 29.9035 23.9817 30.0375 23.9817 30.1775V43.1935C23.9817 44.7555 25.2487 46.0225 26.8117 46.0225C28.3737 46.0225 29.6407 44.7555 29.6407 43.1935V40.8855H37.4177V43.1935C37.4177 44.7555 38.6837 46.0225 40.2467 46.0225C41.8097 46.0225 43.0767 44.7555 43.0767 43.1935V30.1775C43.0767 30.0375 43.0547 29.9035 43.0347 29.7685C42.6197 24.8845 38.5187 21.0345 33.5287 21.0345V21.0345Z" fill="white"/>
<path fill-rule="evenodd" clip-rule="evenodd" d="M33.529 61.399C18.161 61.399 5.659 48.897 5.659 33.529C5.659 18.161 18.161 5.659 33.529 5.659C48.897 5.659 61.399 18.161 61.399 33.529C61.399 48.897 48.897 61.399 33.529 61.399M33.529 0C15.041 0 0 15.041 0 33.529C0 52.017 15.041 67.058 33.529 67.058C52.017 67.058 67.058 52.017 67.058 33.529C67.058 15.041 52.017 0 33.529 0" fill="white"/>
<path fill-rule="evenodd" clip-rule="evenodd" d="M99.0571 35.2265V30.5825C99.0571 28.4385 100.801 26.6935 102.945 26.6935C105.09 26.6935 106.834 28.4385 106.834 30.5825V35.2265H99.0571ZM102.945 21.0345C97.9561 21.0345 93.8541 24.8845 93.4391 29.7685C93.4201 29.9035 93.3981 30.0375 93.3981 30.1775V43.1935C93.3981 44.7555 94.6651 46.0225 96.2281 46.0225C97.7901 46.0225 99.0571 44.7555 99.0571 43.1935V40.8855H106.834V43.1935C106.834 44.7555 108.1 46.0225 109.663 46.0225C111.226 46.0225 112.493 44.7555 112.493 43.1935V30.1775C112.493 30.0375 112.471 29.9035 112.451 29.7685C112.036 24.8845 107.935 21.0345 102.945 21.0345V21.0345Z" fill="white"/>
<path fill-rule="evenodd" clip-rule="evenodd" d="M161.065 21.0349C158.447 21.0349 156.074 22.0949 154.347 23.8069C152.621 22.0949 150.247 21.0349 147.629 21.0349C142.64 21.0349 138.539 24.8839 138.123 29.7689C138.104 29.9029 138.082 30.0379 138.082 30.1779V43.1929C138.082 44.7559 139.349 46.0229 140.912 46.0229C142.475 46.0229 143.741 44.7559 143.741 43.1929V30.5829C143.741 28.4379 145.485 26.6939 147.629 26.6939C149.774 26.6939 151.518 28.4379 151.518 30.5829V37.5339C151.518 39.0969 152.784 40.3639 154.347 40.3639C155.91 40.3639 157.177 39.0969 157.177 37.5339V30.5829C157.177 28.4379 158.921 26.6939 161.065 26.6939C163.209 26.6939 164.953 28.4379 164.953 30.5829V43.1929C164.953 44.7559 166.22 46.0229 167.783 46.0229C169.346 46.0229 170.612 44.7559 170.612 43.1929V30.1779C170.612 30.0379 170.591 29.9029 170.571 29.7689C170.156 24.8839 166.055 21.0349 161.065 21.0349" fill="white"/>
<path fill-rule="evenodd" clip-rule="evenodd" d="M132.773 37.5961C131.421 36.8131 129.689 37.2761 128.907 38.6281C128.213 39.8281 126.922 40.5741 125.537 40.5741C123.393 40.5741 121.649 38.8291 121.649 36.6851V30.6321C121.649 30.6301 121.65 30.6281 121.65 30.6261C121.65 28.4821 123.394 26.7381 125.538 26.7381C126.832 26.7381 128.038 27.3801 128.764 28.4541C129.311 29.2641 130.203 29.7001 131.111 29.7001C131.656 29.7001 132.207 29.5431 132.693 29.2151C133.988 28.3401 134.328 26.5811 133.453 25.2861C131.673 22.6521 128.714 21.0791 125.538 21.0791C120.582 21.0791 116.499 24.8761 116.037 29.7131C116.012 29.8651 115.99 30.0181 115.99 30.1781V37.5341C115.99 37.8691 116.059 38.1871 116.166 38.4851C117.011 42.8911 120.889 46.2331 125.537 46.2331C128.934 46.2331 132.103 44.4051 133.805 41.4621C134.588 40.1091 134.126 38.3791 132.773 37.5961" fill="white"/>
<path fill-rule="evenodd" clip-rule="evenodd" d="M228.965 37.469C227.613 36.685 225.881 37.149 225.099 38.501C224.405 39.701 223.114 40.447 221.729 40.447C219.585 40.447 217.841 38.702 217.841 36.558V30.505C217.841 30.503 217.842 30.501 217.842 30.499C217.842 28.355 219.586 26.611 221.73 26.611C223.024 26.611 224.23 27.253 224.956 28.327C225.503 29.137 226.395 29.573 227.303 29.573C227.848 29.573 228.399 29.416 228.885 29.088C230.18 28.213 230.52 26.454 229.645 25.159C227.865 22.525 224.906 20.952 221.73 20.952C216.774 20.952 212.691 24.749 212.229 29.586C212.204 29.738 212.182 29.891 212.182 30.051V37.407C212.182 37.742 212.251 38.06 212.358 38.358C213.203 42.764 217.081 46.106 221.729 46.106C225.126 46.106 228.295 44.278 229.997 41.335C230.78 39.982 230.318 38.252 228.965 37.469" fill="white"/>
<path fill-rule="evenodd" clip-rule="evenodd" d="M243.119 40.4267C243.074 40.4267 243.032 40.4377 242.988 40.4397C240.905 40.3697 239.231 38.6577 239.231 36.5587V30.4997C239.231 28.3557 240.975 26.6107 243.119 26.6107C244.413 26.6107 245.619 27.2527 246.345 28.3277C246.779 28.9687 247.007 29.7197 247.007 30.4997V36.5387C247.007 37.3177 246.779 38.0687 246.345 38.7107C245.619 39.7847 244.413 40.4267 243.119 40.4267M252.64 29.7917C252.639 29.7767 252.637 29.7617 252.636 29.7467C252.625 29.6537 252.623 29.5567 252.604 29.4667C252.438 27.9257 251.908 26.4527 251.034 25.1597C249.255 22.5247 246.296 20.9517 243.119 20.9517C238.159 20.9517 234.074 24.7547 233.618 29.5967C233.593 29.7457 233.572 29.8947 233.572 30.0507V37.4067C233.572 37.7427 233.64 38.0597 233.748 38.3577C234.592 42.7637 238.47 46.1057 243.119 46.1057C243.217 46.1057 243.309 46.0867 243.404 46.0767C246.471 45.9857 249.308 44.4337 251.034 41.8787C251.751 40.8167 252.236 39.6337 252.48 38.3917C252.595 38.0837 252.666 37.7547 252.666 37.4067V30.0507C252.666 29.9617 252.648 29.8787 252.64 29.7917" fill="white"/>
<path fill-rule="evenodd" clip-rule="evenodd" d="M188.128 29.8977H180.451C180.741 28.0387 182.348 26.6107 184.287 26.6107C185.581 26.6107 186.787 27.2527 187.513 28.3277C187.834 28.8017 188.041 29.3367 188.128 29.8977M192.202 25.1587C190.422 22.5247 187.463 20.9517 184.287 20.9517C179.241 20.9517 175.108 24.8897 174.773 29.8527C174.761 29.9607 174.74 30.0667 174.74 30.1777V37.5347C174.74 37.9417 174.83 38.3277 174.986 38.6777C175.953 42.9237 179.752 46.1057 184.287 46.1057C184.292 46.1057 184.296 46.1047 184.3 46.1047C187.692 46.0997 190.854 44.2737 192.555 41.3347C193.338 39.9827 192.876 38.2517 191.524 37.4687C190.17 36.6857 188.44 37.1477 187.657 38.4997C186.962 39.6997 185.671 40.4457 184.287 40.4457C184.286 40.4457 184.284 40.4467 184.282 40.4467C182.14 40.4437 180.399 38.7007 180.399 36.5587V35.5567H191.005C192.568 35.5567 193.835 34.2897 193.835 32.7267V29.4737C193.835 29.0587 193.741 28.6687 193.581 28.3137C193.318 27.1937 192.856 26.1257 192.202 25.1587" fill="white"/>
</svg>
